<?xml version="1.0" encoding="UTF-8" standalone="no" ?>
<!DOCTYPE svg PUBLIC "-//W3C//DTD SVG 1.1//EN" "http://www.w3.org/Graphics/SVG/1.1/DTD/svg11.dtd">
<svg xmlns="http://www.w3.org/2000/svg" xmlns:xlink="http://www.w3.org/1999/xlink" version="1.1" width="1200" height="628" viewBox="0 0 1200 628" xml:space="preserve">
<desc>Created with Fabric.js 5.2.4</desc>
<defs>
</defs>
<rect x="0" y="0" width="100%" height="100%" fill="transparent"></rect>
<g transform="matrix(1 0 0 1 600 314)" id="6428f6ef-e5fc-4858-9001-078a603b8f06"  >
<rect style="stroke: none; stroke-width: 1; stroke-dasharray: none; stroke-linecap: butt; stroke-dashoffset: 0; stroke-linejoin: miter; stroke-miterlimit: 4; fill: rgb(255,255,255); fill-rule: nonzero; opacity: 1; visibility: hidden;" vector-effect="non-scaling-stroke"  x="-600" y="-314" rx="0" ry="0" width="1200" height="628" />
</g>
<g transform="matrix(0 0 0 0 0 0)" id="537c9935-4c36-461a-be96-5a3e1d1322fc"  >
</g>
<g transform="matrix(8.7 0 0 8.7 321.49 355.65)"  >
<g style=""   >
		<g transform="matrix(1 0 0 1 0.02 -2)"  >
<path style="stroke: none; stroke-width: 1; stroke-dasharray: none; stroke-linecap: butt; stroke-dashoffset: 0; stroke-linejoin: miter; stroke-miterlimit: 4; fill: rgb(49,111,246); fill-rule: nonzero; opacity: 1;" vector-effect="non-scaling-stroke"  transform=" translate(-12.01, -10.01)" d="M 8 19 L 7 19 C 3.4810029499072788 18.985640289697162 0.5196848179495355 16.36102564593664 0.08273541333717116 12.869232172998963 C -0.35421399127519315 9.377438700061287 1.8690504786412392 6.104045628077561 5.275999999999998 5.222999999999999 C 6.104131480543449 2.5719616525864697 8.643457159065209 0.8357786408104033 11.414300235375759 1.0261328238115555 C 14.185143311686309 1.2164870068127076 16.4631850463725 3.2836184024931416 16.921 6.022999999999996 C 19.277389890151213 5.811902242975794 21.56239433086923 6.897781953973735 22.88688131342419 8.858105858452262 C 24.211368295979156 10.81842976293079 24.366150623164415 13.343587673250289 23.290999999999997 15.451000000000006 L 21.51 14.541 C 21.833670313560475 13.909444488499203 22.00167265013476 13.209663327380593 22 12.499999999999998 C 22.002809858976338 11.085311062677507 21.338870477475506 9.751993698618708 20.20820421710521 8.901731096624268 C 19.07753795673491 8.051468494629827 17.61233085707797 7.78366474050507 16.253999999999998 8.179 L 14.914999999999997 8.564 L 15 6.979 C 14.97178473776545 4.931226621891543 13.401431484698472 3.2355403937709837 11.36184269734306 3.050474222883989 C 9.322253909987651 2.8654080519969947 7.472337465475777 4.250749263388729 7.076 6.259999999999998 L 6.944999999999999 6.96 L 6.244999999999999 7.066 C 3.6850177518825444 7.485205444766122 1.8707957765459042 9.792577629129438 2.067382956443854 12.379196231919156 C 2.263970136341804 14.965814834708873 4.406067447569258 16.972500381126157 6.999999999999998 17 L 8 17 z" stroke-linecap="round" />
</g>
		<g transform="matrix(1 0 0 1 3 5)"  >
<path style="stroke: none; stroke-width: 1; stroke-dasharray: none; stroke-linecap: butt; stroke-dashoffset: 0; stroke-linejoin: miter; stroke-miterlimit: 4; fill: rgb(49,111,246); fill-rule: nonzero; opacity: 1;" vector-effect="non-scaling-stroke"  transform=" translate(-15, -17)" d="M 20 23 L 10 23 L 10 11 L 16.414 11 L 20 14.586 z M 12 21 L 18 21 L 18 15.414 L 15.586 13 L 12 13 z" stroke-linecap="round" />
</g>
</g>
</g>
<g transform="matrix(1.14 0 0 1.14 746.53 372.35)" style="" id="7e924d50-c71a-47fb-b7f8-161d66c55fd7"  >
		<text xml:space="preserve" font-family="Raleway" font-size="103" font-style="normal" font-weight="900" style="stroke: none; stroke-width: 1; stroke-dasharray: none; stroke-linecap: butt; stroke-dashoffset: 0; stroke-linejoin: miter; stroke-miterlimit: 4; fill: rgb(0,0,0); fill-rule: nonzero; opacity: 1; white-space: pre;" ><tspan x="-257.55" y="32.36" >File Cloud</tspan></text>
</g>
</svg>